<svg id="Layer_1" data-name="Layer 1" xmlns="http://www.w3.org/2000/svg" viewBox="0 0 149 81.95"><defs><style>.cls-1{fill:#272425}.cls-2{fill:#dec33a}.cls-4{fill:#fff}.cls-7{fill:none}</style></defs><g id="Layer_1-2" data-name="Layer 1-2"><path class="cls-1" d="M134.06 48.6h-26.77a.75.75 0 1 1 0-1.49h26.78a.75.75 0 0 1 0 1.49zM140.82 48.6h-2.37a.75.75 0 0 1 0-1.49h2.37a.75.75 0 0 1 0 1.49zM39.44 60.84H12.66a.75.75 0 1 1 0-1.49h26.78a.75.75 0 0 1 0 1.49zM8.28 60.84H5.91a.75.75 0 0 1 0-1.49h2.37a.75.75 0 0 1 0 1.49z"/><path class="cls-2" d="M28.69 18.75h36.33v49.4H28.69z"/><path class="cls-1" d="M65 68.89H28.69a.74.74 0 0 1-.74-.74v-49.4a.74.74 0 0 1 .74-.74H65a.74.74 0 0 1 .74.74v49.39a.75.75 0 0 1-.74.75zM29.44 67.4h34.83V19.49H29.44z"/><path fill="#c65254" d="M72.75 18.75h36.33v49.4H72.75z"/><path class="cls-1" d="M109.07 68.89H72.75a.74.74 0 0 1-.74-.74v-49.4a.74.74 0 0 1 .74-.74h36.33a.74.74 0 0 1 .74.74v49.39a.74.74 0 0 1-.73.75zM73.49 67.4h34.84V19.49H73.49z"/><path class="cls-4" d="M32.28 16.03h34.83v48.53H32.28z"/><path class="cls-1" d="M67.11 65.31H32.28a.74.74 0 0 1-.74-.74V16a.74.74 0 0 1 .74-.74h34.83a.74.74 0 0 1 .74.74v48.56a.75.75 0 0 1-.74.75zM33 63.82h33.36v-47H33z"/><path class="cls-4" d="M70.47 16.03h34.83v48.53H70.47z"/><path class="cls-1" d="M105.3 65.31H70.47a.74.74 0 0 1-.74-.74V16a.74.74 0 0 1 .74-.74h34.83a.74.74 0 0 1 .7.74v48.56a.74.74 0 0 1-.7.75zm-34.08-1.49h33.34v-47H71.22z"/><circle class="cls-1" cx="62.57" cy="23.27" r="2.07"/><path class="cls-4" d="M62.57 25.8a2.53 2.53 0 1 1 2.53-2.53 2.54 2.54 0 0 1-2.53 2.53zm0-4.13a1.6 1.6 0 1 0 1.6 1.6 1.6 1.6 0 0 0-1.59-1.61z"/><circle class="cls-1" cx="75.01" cy="23.27" r="2.07"/><path class="cls-4" d="M75 25.8a2.53 2.53 0 1 1 2.53-2.53A2.54 2.54 0 0 1 75 25.8zm0-4.13a1.6 1.6 0 1 0 1.6 1.6 1.6 1.6 0 0 0-1.6-1.61z"/><path class="cls-1" d="M75 24H62.57a.74.74 0 0 1 0-1.49H75A.74.74 0 1 1 75 24z"/><circle class="cls-1" cx="62.57" cy="34.62" r="2.07"/><path class="cls-4" d="M62.57 37.15a2.53 2.53 0 1 1 2.53-2.53 2.54 2.54 0 0 1-2.53 2.53zm0-4.13a1.6 1.6 0 1 0 1.6 1.6A1.6 1.6 0 0 0 62.59 33z"/><circle class="cls-1" cx="75.01" cy="34.62" r="2.07"/><path class="cls-4" d="M75 37.15a2.53 2.53 0 1 1 2.53-2.53A2.54 2.54 0 0 1 75 37.15zM75 33a1.6 1.6 0 1 0 1.6 1.6A1.6 1.6 0 0 0 75 33z"/><path class="cls-1" d="M75 35.36H62.57a.75.75 0 1 1 0-1.49H75a.75.75 0 1 1 0 1.49z"/><circle class="cls-1" cx="62.57" cy="45.97" r="2.07"/><path class="cls-4" d="M62.57 48.5A2.53 2.53 0 1 1 65.1 46a2.54 2.54 0 0 1-2.53 2.5zm0-4.13a1.6 1.6 0 1 0 1.6 1.6 1.6 1.6 0 0 0-1.6-1.6z"/><circle class="cls-1" cx="75.01" cy="45.97" r="2.07"/><path class="cls-4" d="M75 48.5a2.53 2.53 0 1 1 2.54-2.5A2.54 2.54 0 0 1 75 48.5zm0-4.13A1.6 1.6 0 1 0 76.6 46a1.6 1.6 0 0 0-1.6-1.63z"/><path class="cls-1" d="M75 46.71H62.57a.75.75 0 1 1 0-1.49H75a.75.75 0 1 1 0 1.49z"/><circle class="cls-1" cx="62.57" cy="57.32" r="2.07"/><path class="cls-4" d="M62.57 59.85a2.53 2.53 0 1 1 2.53-2.53 2.54 2.54 0 0 1-2.53 2.53zm0-4.13a1.6 1.6 0 1 0 1.6 1.6 1.6 1.6 0 0 0-1.6-1.6z"/><circle class="cls-1" cx="75.01" cy="57.32" r="2.07"/><path class="cls-4" d="M75 59.85a2.53 2.53 0 1 1 2.53-2.53A2.54 2.54 0 0 1 75 59.85zm0-4.13a1.6 1.6 0 1 0 1.6 1.6 1.6 1.6 0 0 0-1.6-1.6z"/><path class="cls-1" d="M75 58.06H62.57a.75.75 0 1 1 0-1.49H75a.75.75 0 1 1 0 1.49zM54.94 23.4H37.08a.74.74 0 0 1 0-1.49h17.86a.74.74 0 0 1 0 1.49zM54.94 29.28H37.08a.74.74 0 0 1 0-1.49h17.86a.74.74 0 0 1 0 1.49zM54.94 35.16H37.08a.75.75 0 1 1 0-1.49h17.86a.75.75 0 1 1 0 1.49zM54.94 41H37.08a.75.75 0 1 1 0-1.49h17.86a.75.75 0 1 1 0 1.49zM54.94 46.92H37.08a.75.75 0 1 1 0-1.49h17.86a.75.75 0 1 1 0 1.49zM54.94 52.79H37.08a.75.75 0 1 1 0-1.49h17.86a.75.75 0 1 1 0 1.49zM47.76 58.67H37.08a.75.75 0 1 1 0-1.49h10.68a.75.75 0 0 1 0 1.49zM100.27 23.4H82.41a.74.74 0 1 1 0-1.49h17.86a.74.74 0 1 1 0 1.49zM100.27 29.28H82.41a.74.74 0 1 1 0-1.49h17.86a.74.74 0 1 1 0 1.49zM100.27 35.16H82.41a.75.75 0 1 1 0-1.49h17.86a.75.75 0 1 1 0 1.49zM94.2 41H82.41a.75.75 0 1 1 0-1.49H94.2a.75.75 0 1 1 0 1.49zM89.13 46.92h-6.72a.75.75 0 1 1 0-1.49h6.72a.75.75 0 1 1 0 1.49zM86 52.79h-3.6a.75.75 0 1 1 0-1.49H86a.75.75 0 1 1 0 1.49z"/><path class="cls-4" d="M104.49 47.63a2 2 0 0 1 1.63 2.31V50l-1.24 6.49a2 2 0 0 1-4-.76l1.24-6.49a2 2 0 0 1 2.32-1.62z"/><path class="cls-1" d="M102.88 58.89a2.82 2.82 0 0 1-.53 0 2.77 2.77 0 0 1-2.21-3.23l1.24-6.48a2.77 2.77 0 0 1 5-1 2.74 2.74 0 0 1 .43 2.08l-1.24 6.48a2.77 2.77 0 0 1-2.72 2.26zm1.23-10.55a1.29 1.29 0 0 0-1.26 1l-1.24 6.48a1.29 1.29 0 0 0 2.53.48l1.24-6.48a1.29 1.29 0 0 0-1-1.5z"/><path class="cls-4" d="M102.5 46.72a2 2 0 0 1 .49 2.79l-3 4.35a2 2 0 1 1-3.3-2.37l3-4.35a2 2 0 0 1 2.78-.5z"/><path class="cls-1" d="M98.27 55.5A2.78 2.78 0 0 1 96 51.1l3-4.34a2.78 2.78 0 0 1 5 1.17 2.75 2.75 0 0 1-.49 2.07l-3 4.34a2.76 2.76 0 0 1-1.81 1.13 2.64 2.64 0 0 1-.43.03zm3-8.41a1.29 1.29 0 0 0-1 .53l-3 4.34a1.29 1.29 0 0 0 .29 1.8 1.31 1.31 0 0 0 1 .23 1.27 1.27 0 0 0 .83-.52l3-4.34a1.28 1.28 0 0 0-1-2z"/><path d="M111 47l-.45-.4a3.36 3.36 0 0 1-2.49 1 4.45 4.45 0 0 1-2.48-.78L101.16 44l-.32.51.29.53a12 12 0 0 1 5.73-1.62 9 9 0 0 1 2.36.31 2.41 2.41 0 0 1 1.3.78 1.67 1.67 0 0 1 .37 1 1.53 1.53 0 0 1-.37 1l.45.4.45.4a2.72 2.72 0 0 0 .67-1.8 2.88 2.88 0 0 0-.63-1.79 3.6 3.6 0 0 0-1.93-1.2 10.15 10.15 0 0 0-2.68-.35 13.19 13.19 0 0 0-6.3 1.76.6.6 0 0 0 0 1l4.37 2.76.32-.51-.33.5a5.66 5.66 0 0 0 3.15 1 4.54 4.54 0 0 0 3.38-1.38z" fill="#382f73"/><path class="cls-4" d="M111 47a4.51 4.51 0 0 1-5.75.3l-5.19-3.3a2 2 0 1 0-2.17 3.44c7.08 7 8.56 8 10.4 9"/><path d="M100.33 46.72l5.16 3.28a3.4 3.4 0 0 0 5.16-1.9L111 47a4.51 4.51 0 0 1-5.75.3l-5.2-3.3a2 2 0 1 0-2.43 3.23 2 2 0 0 1 2.71-.51z" fill="#e7cec3"/><path class="cls-4" d="M111 47a4.51 4.51 0 0 1-5.75.3l-5.19-3.3a2 2 0 1 0-2.17 3.44c7.08 7 8.56 8 10.4 9"/><path class="cls-4" d="M100.33 46.72l5.16 3.28a3.4 3.4 0 0 0 5.16-1.9L111 47a4.51 4.51 0 0 1-5.75.3l-5.2-3.3a2 2 0 1 0-2.43 3.23 2 2 0 0 1 2.71-.51z"/><path class="cls-4" d="M124.43 52.78a20.38 20.38 0 0 1-2.44-4.9 14.28 14.28 0 0 0-4.9-6.45 17 17 0 0 0-9.88-3.27c-4.69 0-9.78 2.06-14.82 6.87A2.63 2.63 0 0 0 96 48.85c.43-.41.86-.78 1.28-1.14l.19.15c3.54 3.52 5.68 5.52 7.19 6.79A18.32 18.32 0 0 0 108 57a29.65 29.65 0 0 1 3.3 2 14 14 0 0 1 2.31 2.19m13-7.14l-12.34 9.45-1.36-1.77 12.34-9.45zm-16.1-7.48a3.36 3.36 0 0 1-2.49 1 4.45 4.45 0 0 1-2.48-.78l-3.47-2.19a11.39 11.39 0 0 1 4.79-1.15 9 9 0 0 1 2.36.31 2.41 2.41 0 0 1 1.3.78 1.68 1.68 0 0 1 .37 1 1.54 1.54 0 0 1-.37 1z"/><path class="cls-1" d="M114.29 64.22h-.1a.75.75 0 0 1-.49-.28l-1.36-1.77a.74.74 0 0 1 .14-1 12.31 12.31 0 0 0-1.68-1.51 29.23 29.23 0 0 0-3.22-2 19.21 19.21 0 0 1-3.45-2.4c-1.58-1.26-3.72-3.26-6.92-6.46l-.75.69a3.37 3.37 0 0 1-2.32.92 3.38 3.38 0 0 1-2.32-5.83c4.85-4.58 10.18-7.07 15.33-7.07a17.84 17.84 0 0 1 10.31 3.41 15.05 15.05 0 0 1 5.15 6.76l.48 1.14a18.64 18.64 0 0 0 1.48 3.08l.19-.14a.75.75 0 0 1 1 .14l1.36 1.77a.74.74 0 0 1-.14 1l-12.34 9.45a.76.76 0 0 1-.35.1zm-.29-2.38l.45.59 11.16-8.54-.45-.59zM97.28 47a.75.75 0 0 1 .48.17l.24.19c3.35 3.33 5.55 5.41 7.15 6.75a17.64 17.64 0 0 0 3.21 2.24 30.55 30.55 0 0 1 3.38 2.06 13.7 13.7 0 0 1 2 1.8l9.74-7.46a18.85 18.85 0 0 1-1.67-3.42l-.47-1.12a13.49 13.49 0 0 0-4.68-6.21 16.36 16.36 0 0 0-9.45-3.14c-4.79 0-9.74 2.3-14.3 6.66a1.9 1.9 0 0 0-.59 1.37 1.88 1.88 0 0 0 1.88 1.88 1.88 1.88 0 0 0 1.3-.52c.44-.42.88-.8 1.31-1.17a.74.74 0 0 1 .47-.08zM108 48.27a5.2 5.2 0 0 1-2.9-.9l-3.47-2.19a.74.74 0 0 1 .08-1.31 11.07 11.07 0 0 1 7.66-.88 3.13 3.13 0 0 1 1.69 1 2.39 2.39 0 0 1 .53 1.51A2.26 2.26 0 0 1 111 47a4.1 4.1 0 0 1-3 1.27zm-4.35-3.58l2.24 1.42a3.76 3.76 0 0 0 2.1.67 2.6 2.6 0 0 0 1.92-.73.77.77 0 0 0 .18-.51.91.91 0 0 0-.21-.58 1.71 1.71 0 0 0-.91-.53 9 9 0 0 0-5.28.27z"/><path class="cls-7" d="M113.6 61.17l10.83-8.39"/><path class="cls-1" transform="rotate(-37.71 119.017 56.977)" d="M112.17 56.66h13.7v.62h-13.7z"/><path class="cls-4" transform="rotate(-21.23 120.169 38.98)" d="M118.88 36.34h2.59v5.27h-2.59z"/><path class="cls-1" d="M119.92 42.66a.73.73 0 0 1-.3-.06.76.76 0 0 1-.39-.41l-1.91-4.92a.75.75 0 0 1 .39-1l2.42-.94a.75.75 0 0 1 1 .39L123 40.7a.74.74 0 0 1-.37 1h-.06l-2.42.94a.75.75 0 0 1-.23.02zm-.92-5.24l1.37 3.53 1-.4L120 37z"/><path class="cls-4" transform="rotate(-21.16 122.29 38.217)" d="M120.98 36.32h2.58v3.76h-2.58z"/><path class="cls-1" d="M122.09 41a.73.73 0 0 1-.3-.06.74.74 0 0 1-.39-.41L120 37a.74.74 0 0 1 .37-1h.06l2.42-.94a.75.75 0 0 1 1 .39l1.37 3.55a.75.75 0 0 1-.39 1l-2.42.94a.75.75 0 0 1-.32.06zm-.4-3.84l.83 2.13 1-.4-.83-2.13z"/><path class="cls-4" d="M96.34 51.21l-8.7.42 6.41-5.33"/><path class="cls-1" d="M87.63 52.37a.75.75 0 0 1-.48-1.37l6.42-5.33a.76.76 0 0 1 1 1.15l-4.7 3.91 6.48-.31a.71.71 0 0 1 .78.71.74.74 0 0 1-.7.78l-8.71.42z"/><path class="cls-7" d="M87.63 51.63l-1.13.44"/><path class="cls-1" d="M86.5 52.53a.47.47 0 0 1-.17-.9l1.14-.44a.47.47 0 0 1 .44.83h-.1l-1.14.44a.45.45 0 0 1-.17.07z"/><path class="cls-2" transform="rotate(-21.23 107.123 44.047)" d="M94.41 41.42h25.43v5.27H94.41z"/><path class="cls-1" d="M96.22 51.86a.75.75 0 0 1-.69-.47l-1.91-4.92a.75.75 0 0 1 .39-1l23.7-9.21a.75.75 0 0 1 1 .39l1.91 4.92a.75.75 0 0 1-.39 1l-23.7 9.21a.76.76 0 0 1-.31.08zm-.95-5.23l1.37 3.53L119 41.49 117.59 38z"/><path class="cls-4" d="M110.52 46.55a3.36 3.36 0 0 1-2.49 1 4.45 4.45 0 0 1-2.48-.78l-5.16-3.26a2.63 2.63 0 0 0-3.63.82 2.62 2.62 0 0 0 .74 3.57c3.53 3.51 5.67 5.51 7.17 6.77A18.45 18.45 0 0 0 108 57"/><path class="cls-1" d="M108 57.71a.74.74 0 0 1-.36-.09 19.21 19.21 0 0 1-3.45-2.4c-1.61-1.36-3.84-3.46-7.22-6.82a3.27 3.27 0 0 1-1.37-2.7 3.38 3.38 0 0 1 3.4-3.37 3.38 3.38 0 0 1 1.8.52l5.2 3.26a3.76 3.76 0 0 0 2.1.67 2.64 2.64 0 0 0 1.92-.72.75.75 0 0 1 1.12 1 4.1 4.1 0 0 1-3 1.23 5.2 5.2 0 0 1-2.9-.9L100 44.11a1.87 1.87 0 0 0-1-.29 1.88 1.88 0 0 0-1.6.88 1.85 1.85 0 0 0-.29 1 1.88 1.88 0 0 0 .82 1.56c3.45 3.41 5.65 5.49 7.24 6.82a17.64 17.64 0 0 0 3.21 2.24.74.74 0 0 1-.38 1.39z"/><path transform="rotate(-37.44 123.312 62.496)" fill="#d17f24" d="M115.44 57.68h15.75v9.63h-15.75z"/><path class="cls-1" d="M120 71.84h-.1a.75.75 0 0 1-.49-.28l-5.85-7.65a.74.74 0 0 1 .14-1l12.51-9.58a.73.73 0 0 1 .55-.15.75.75 0 0 1 .49.28l5.85 7.65a.74.74 0 0 1-.14 1l-12.51 9.58a.75.75 0 0 1-.45.15zm-4.81-8.25l4.95 6.41 11.33-8.67-4.95-6.46zM128.43 11.4a.47.47 0 0 1-.47-.47V9.75a.47.47 0 1 1 .93 0v1.19a.47.47 0 0 1-.46.46zM129.82 12a.47.47 0 0 1-.33-.8l.84-.84a.47.47 0 1 1 .67.64l-.84.84a.46.46 0 0 1-.34.16zM131.59 13.37h-1.19a.47.47 0 0 1-.14-.93h1.33a.47.47 0 0 1 .14.93zM130.66 15.6a.46.46 0 0 1-.33-.14l-.84-.84a.47.47 0 0 1 .66-.66l.84.84a.47.47 0 0 1-.33.8zM128.43 16.53a.47.47 0 0 1-.47-.47v-1.19a.47.47 0 1 1 .93 0v1.19a.47.47 0 0 1-.46.47zM126.2 15.6a.47.47 0 0 1-.33-.8l.84-.84a.47.47 0 0 1 .66.66l-.84.84a.47.47 0 0 1-.33.14zM126.46 13.37h-1.19a.47.47 0 0 1-.14-.93h1.33a.47.47 0 0 1 .14.93zM127 12a.47.47 0 0 1-.33-.14l-.84-.84a.47.47 0 0 1 .58-.74l.08.08.84.84a.47.47 0 0 1-.33.8z"/><circle class="cls-4" cx="14.43" cy="24.05" r="1.28"/><path class="cls-1" d="M14.43 25.8a1.75 1.75 0 1 1 1.75-1.8 1.75 1.75 0 0 1-1.75 1.8zm0-2.56a.81.81 0 1 0 .82.81.81.81 0 0 0-.82-.81z"/></g></svg>