<svg id="Layer_1" data-name="Layer 1" xmlns="http://www.w3.org/2000/svg" viewBox="0 0 149 81.95"><defs><style>.cls-1{fill:#272425}.cls-3{fill:#d17f24}</style></defs><g id="Layer_1-2" data-name="Layer 1-2"><path class="cls-1" d="M135 53.83H89.57a.75.75 0 1 1 0-1.49H135a.75.75 0 0 1 0 1.49zM141.73 53.83h-2.37a.75.75 0 0 1 0-1.49h2.37a.75.75 0 0 1 0 1.49zM77.1 70.34H17.84a.74.74 0 0 1 0-1.49H77.1a.74.74 0 1 1 0 1.49zM13.46 70.34h-2.38a.74.74 0 0 1 0-1.49h2.37a.74.74 0 0 1 0 1.49z"/><circle cx="77.1" cy="35.13" r="24.21" fill="#fff"/><path class="cls-1" d="M77.1 60.09a25 25 0 1 1 25-25 25 25 0 0 1-25 25zm0-48.42a23.47 23.47 0 1 0 23.47 23.47A23.5 23.5 0 0 0 77.1 11.66z"/><path class="cls-3" d="M99.93 27.74A24 24 0 0 0 84.22 12.5l-4 1.34a.89.89 0 0 0-.39.27.9.9 0 0 0-.2.43l-.17 1a1.47 1.47 0 0 0 .07.77 1.45 1.45 0 0 0 .45.63l3.28 2.66-1.94 3.62 1.09 1.44-2.28.77a1.08 1.08 0 0 0-.64.56 1.06 1.06 0 0 0 0 .84l.59 1.59a1 1 0 0 0 1.18.63l3.49-.85 1.92-2.1v-2.26l6 .49 2.13-2 1 1.91a.81.81 0 0 1-.34 1.09l-5.62 2.87-6.19 1.71a1.32 1.32 0 0 0-.49.26 1.34 1.34 0 0 0-.35.43l-1.69 3.34-1 6.53a3 3 0 0 0 1.21 2.88l4.16 3a2.42 2.42 0 0 0 2.78 0l4.12-2.86a1.11 1.11 0 0 1 1.55.27l2.3 3.24-.32 3.43a23.89 23.89 0 0 0 4.01-22.69zm-7.43-6.39a1.14 1.14 0 0 1-1.5-.17l-1.57-1.72 2.17-.73 2.12 1.79zM72.92 52.61a2.82 2.82 0 0 0-2.06-1H66l-5.77-7.12a.91.91 0 0 0-.33-.26.9.9 0 0 0-.41-.08l-2.49.03a.87.87 0 0 0-.72.42.86.86 0 0 0 0 .83l3.45 6.66A24.23 24.23 0 0 0 72 58.86l2.95-2a1.15 1.15 0 0 0 .3-1.6l-.09-.11zM77.15 22.68l-.4-1.17a.38.38 0 0 0-.19-.22.39.39 0 0 0-.29 0l-.27.11-.11 1.21a.36.36 0 0 0 .33.39h.14z"/><path class="cls-3" d="M80.68 21.7a.63.63 0 0 0 .2-.47.64.64 0 0 0-.21-.47l-2-1.86a.78.78 0 0 0-1.1.06l-.06.07-.38.53 1 3a.81.81 0 0 0 .58.53.82.82 0 0 0 .77-.2zM68.66 12.94A24 24 0 0 0 53 35.54v.53l3.26-1.15 1 2.85a.88.88 0 0 0 .45.51.9.9 0 0 0 .68 0l.73-.25a1 1 0 0 0 .7-1.18L58.9 32l5.4-5.2a1.43 1.43 0 0 0 .42-1.2l-.56-4.48L67.28 17l1.87.17-1.77 2.48a.84.84 0 0 0 .44 1.3l.59.18a1 1 0 0 0 1.06-.33l4-5a1 1 0 0 0-.5-1.57z"/><path class="cls-1" d="M77.12 65.6a30.47 30.47 0 0 1-9.83-59.31.75.75 0 0 1 .48 1.41 29 29 0 0 0 18.64 54.87.76.76 0 0 1 .49 1.43 30.38 30.38 0 0 1-9.78 1.6z"/><path class="cls-1" d="M68.3 10a.74.74 0 0 1-.71-.5L66.06 5a.75.75 0 0 1 1.41-.48L69 9a.74.74 0 0 1-.46.94.77.77 0 0 1-.24.06zM87.42 66.26a.74.74 0 0 1-.71-.5l-1.54-4.52a.75.75 0 1 1 1.41-.48l1.54 4.52a.75.75 0 0 1-.47.95.77.77 0 0 1-.23.03zM77.1 60.09a25 25 0 1 1 25-25 25 25 0 0 1-25 25zm0-48.42a23.47 23.47 0 1 0 23.47 23.47A23.5 23.5 0 0 0 77.1 11.66zM29.64 20.68c.27.12.27.31 0 .42l-1.46.62a1.55 1.55 0 0 0-.71.71l-.62 1.46c-.12.27-.31.27-.42 0l-.62-1.46a1.55 1.55 0 0 0-.71-.71l-1.46-.62c-.27-.12-.27-.31 0-.42l1.46-.62a1.55 1.55 0 0 0 .71-.71l.62-1.46c.12-.27.31-.27.42 0l.62 1.46a1.55 1.55 0 0 0 .71.71l1.46.62"/><path fill="#c65254" d="M75.21 64.86h3.77v8.88h-3.77z"/><path class="cls-1" d="M79 74.49h-3.79a.74.74 0 0 1-.74-.74v-8.89a.75.75 0 0 1 .74-.74H79a.74.74 0 0 1 .74.74v8.88a.74.74 0 0 1-.73.75zM76 73h2.28v-7.39H76z"/><path d="M88.42 73.74c0-.57-5.07-1-11.32-1s-11.32.46-11.32 1v4.16h22.64z" fill="#ddc13a"/><path d="M88.42 78.65H65.77a.74.74 0 0 1-.77-.71v-4.2c0-.57 0-1.74 12.09-1.74s12.07 1.2 12.07 1.78v4.12a.74.74 0 0 1-.74.74zm-21.9-1.49h21.16v-3a55.76 55.76 0 0 0-10.58-.68 55.82 55.82 0 0 0-10.58.68zm21.16-3.42zm1.49 0z" fill="#262325"/><path class="cls-1" d="M102.6 16.07a.75.75 0 0 1-.58-.27.74.74 0 0 1 .1-1l4.33-3.55a.74.74 0 0 1 .94 1.15l-4.33 3.55a.73.73 0 0 1-.46.12zM108 19l-3.27-.32a.74.74 0 0 1-.67-.8.74.74 0 0 1 .8-.67l3.27.32A.75.75 0 0 1 108 19zM100.43 13.43h-.07a.74.74 0 0 1-.67-.8l.31-3.3a.72.72 0 0 1 .76-.68h.06a.74.74 0 0 1 .67.8l-.32 3.27a.75.75 0 0 1-.74.71zM97.15 12.36a.75.75 0 0 1-.58-.27l-1.19-1.45a.75.75 0 1 1 1.15-.94l1.19 1.45a.74.74 0 0 1-.58 1.22zM106.07 23.23a.75.75 0 0 1-.58-.27l-1.19-1.45a.75.75 0 1 1 1.15-.94l1.19 1.43a.75.75 0 0 1-.58 1.22z"/></g></svg>