<svg id="Layer_1" data-name="Layer 1" xmlns="http://www.w3.org/2000/svg" viewBox="0 0 149 81.95"><defs><style>.cls-1{fill:#272425}.cls-2{fill:#c65254}.cls-3{fill:#dec33a}.cls-4{fill:#fff}.cls-5{fill:#d17f24}</style></defs><g id="Layer_1-2" data-name="Layer 1-2"><path class="cls-1" d="M138.25 56.17H75.77a.75.75 0 1 1 0-1.49h62.48a.75.75 0 0 1 0 1.49zM143.41 56.17h-1.81a.75.75 0 0 1 0-1.49h1.81a.75.75 0 0 1 0 1.49zM68.37 57.6h-57.1a.75.75 0 1 1 0-1.49h57.1a.75.75 0 0 1 0 1.49zM7.92 57.6H6.11a.75.75 0 1 1 0-1.49h1.81a.75.75 0 1 1 0 1.49zM18.42 14.77a.47.47 0 0 1-.42-.47v-1.18a.47.47 0 1 1 .93 0v1.19a.47.47 0 0 1-.51.46zM19.81 15.35a.47.47 0 0 1-.33-.8l.84-.84a.47.47 0 1 1 .74.58l-.08.08-.84.84a.46.46 0 0 1-.33.14zM21.58 16.74h-1.19a.47.47 0 0 1 0-.93h1.19a.47.47 0 1 1 .14.93zM20.65 19a.46.46 0 0 1-.33-.14l-.84-.86a.47.47 0 0 1 .66-.66l.84.84a.49.49 0 0 1-.33.82zM18.42 19.9a.47.47 0 0 1-.47-.47v-1.19a.47.47 0 1 1 .93 0v1.19a.47.47 0 0 1-.46.47zM16.19 19a.47.47 0 0 1-.33-.8l.84-.84a.47.47 0 0 1 .66.66l-.84.84a.46.46 0 0 1-.33.14zM16.45 16.74h-1.19a.47.47 0 1 1-.14-.93h1.33a.47.47 0 0 1 0 .93zM17 15.35a.46.46 0 0 1-.33-.14l-.84-.84a.47.47 0 0 1 .58-.74l.08.08.84.84a.47.47 0 0 1-.33.8z"/><path class="cls-2" d="M101.37 32.94c-9.15 0-16.56 15.29-16.56 24.43h33.12c0-9.15-7.41-24.43-16.56-24.43z"/><path class="cls-1" d="M117.93 58.12H84.81a.74.74 0 0 1-.74-.74c0-4.75 1.95-11 5-16 3.56-5.9 7.95-9.14 12.35-9.14s8.79 3.25 12.35 9.14c3 5 5 11.28 5 16a.75.75 0 0 1-.75.75zm-32.36-1.49h31.6c-.39-9-7.61-22.94-15.8-22.94S86 47.65 85.57 56.63z"/><ellipse class="cls-2" cx="91.39" cy="43.24" rx="4.75" ry="1.58" transform="rotate(-41.4 90.964 43.335)"/><path class="cls-1" d="M88.41 47.18a1.33 1.33 0 0 1-1.06-.43c-.33-.38-.56-1.11.24-2.47a13 13 0 0 1 5.35-4.68c1.45-.61 2.15-.29 2.48.09a1.3 1.3 0 0 1 .3 1c-.07 1.08-1.2 2.73-2.88 4.2a11.67 11.67 0 0 1-3 2 3.75 3.75 0 0 1-1.43.29zm5.94-6.7a7.18 7.18 0 0 0-3.61 2c-2 1.76-2.58 3.2-2.46 3.47.24.12 1.74-.25 3.75-2s2.55-3.15 2.47-3.45z"/><path class="cls-3" d="M95 40.1c-10.58-6.23-9.6-13.77-9.6-13.77s-7.61 8.57 2.41 20"/><path class="cls-1" d="M87.81 47a.61.61 0 0 1-.46-.21C77.09 35 84.86 26 84.94 25.92a.61.61 0 0 1 1.06.48c0 .29-.76 7.25 9.26 13.17a.61.61 0 1 1-.62 1c-7.63-4.51-9.42-9.7-9.79-12.44C83.25 31 81 37.63 88.26 46a.61.61 0 0 1-.06.86.6.6 0 0 1-.39.14z"/><path class="cls-4" d="M84.67 41.92a8.75 8.75 0 0 0 3.71-2.13A10.56 10.56 0 0 0 90.71 37 27.23 27.23 0 0 0 95 40.1s.72 1.48-2.79 4.55-4.36 1.71-4.36 1.71z"/><path class="cls-1" d="M88.55 47.26h-.29a1.36 1.36 0 0 1-1-.57l-3.12-4.4a.61.61 0 0 1 .4-1 8.34 8.34 0 0 0 3.4-2 10 10 0 0 0 2.2-2.59.61.61 0 0 1 .83-.25l.11.08a26.81 26.81 0 0 0 4.13 3 .6.6 0 0 1 .26.27c.15.32.74 2.06-2.94 5.27-1.61 1.47-2.95 2.19-3.98 2.19zM88.3 46s.82.5 3.46-1.81c2.37-2.08 2.64-3.28 2.64-3.7A26.24 26.24 0 0 1 90.86 38a12.65 12.65 0 0 1-2.08 2.29 11.34 11.34 0 0 1-3.12 2z"/><path class="cls-4" d="M95 40.1c.58.66-.56 2.59-2.53 4.32s-4 2.59-4.62 1.94"/><path class="cls-1" d="M88.41 47.18a1.33 1.33 0 0 1-1.06-.43.61.61 0 0 1 .89-.83c.23.13 1.77-.25 3.76-2s2.58-3.21 2.47-3.47a.6.6 0 0 1 .06-.85.61.61 0 0 1 .86.06 1.3 1.3 0 0 1 .3 1c-.07 1.08-1.2 2.73-2.88 4.2a11.61 11.61 0 0 1-3 2 3.74 3.74 0 0 1-1.4.32z"/><ellipse class="cls-2" cx="111.29" cy="43.22" rx="1.58" ry="4.75" transform="rotate(-48.82 111.294 43.228)"/><path class="cls-1" d="M114.26 47.18a3.74 3.74 0 0 1-1.42-.34 13 13 0 0 1-5.35-4.68c-.8-1.36-.57-2.09-.24-2.47 1-1.13 3.53.18 5.48 1.88a11.7 11.7 0 0 1 2.35 2.71c.8 1.36.57 2.09.24 2.47a1.33 1.33 0 0 1-1.06.43zm-6.08-6.68c-.08.31.53 1.75 2.47 3.45s3.52 2.14 3.77 2c.09-.25-.47-1.69-2.48-3.45s-3.46-2.13-3.76-2z"/><path class="cls-3" d="M107.71 40.1c10.54-6.22 9.56-13.77 9.56-13.77s7.61 8.57-2.41 20"/><path class="cls-1" d="M114.86 47a.6.6 0 0 1-.4-.15.61.61 0 0 1-.06-.86c7.29-8.33 5-15 3.41-17.77-.38 2.75-2.16 7.93-9.79 12.44a.61.61 0 1 1-.62-1c10-5.92 9.3-12.88 9.27-13.17a.61.61 0 0 1 .35-.63.6.6 0 0 1 .7.15c.08.09 7.85 9.11-2.41 20.83a.62.62 0 0 1-.45.16z"/><path class="cls-4" d="M118 41.92a8.75 8.75 0 0 1-3.71-2.13A10.56 10.56 0 0 1 112 37a27.23 27.23 0 0 1-4.25 3.07s-.72 1.48 2.79 4.55 4.36 1.71 4.36 1.71z"/><path class="cls-1" d="M114.11 47.26c-1 0-2.37-.72-4-2.16-3.67-3.22-3.09-5-2.94-5.27a.6.6 0 0 1 .26-.27 26.63 26.63 0 0 0 4.13-3 .6.6 0 0 1 .51-.14.61.61 0 0 1 .43.31 10 10 0 0 0 2.2 2.59 8.33 8.33 0 0 0 3.4 2 .61.61 0 0 1 .4 1l-3.14 4.43a1.36 1.36 0 0 1-1 .54zm-5.86-6.77c0 .38.25 1.59 2.65 3.69 2.67 2.33 3.46 1.8 3.47 1.8l2.63-3.72a11.37 11.37 0 0 1-3.12-2 12.68 12.68 0 0 1-2.07-2.26 26.43 26.43 0 0 1-3.56 2.5z"/><path class="cls-2" d="M118 41.92a8.75 8.75 0 0 1-3.71-2.13A10.56 10.56 0 0 1 112 37"/><path class="cls-1" d="M118 42.53h-.1a9.22 9.22 0 0 1-4-2.27 11.25 11.25 0 0 1-2.47-2.94.61.61 0 0 1 1.08-.57 10 10 0 0 0 2.2 2.59 8.3 8.3 0 0 0 3.4 2 .61.61 0 0 1-.09 1.21z"/><path class="cls-4" d="M107.71 40.1c-.58.66.56 2.59 2.53 4.32s4 2.59 4.62 1.94"/><path class="cls-1" d="M114.26 47.18a3.75 3.75 0 0 1-1.42-.34 13 13 0 0 1-5.35-4.68c-.8-1.36-.57-2.09-.24-2.47a.61.61 0 0 1 .92.8c-.1.28.49 1.74 2.47 3.47s3.52 2.13 3.77 2a.6.6 0 0 1 .85-.05.61.61 0 0 1 .05.86 1.32 1.32 0 0 1-1.05.41z"/><path class="cls-4" d="M83.4 55.97h36.02v5.48H83.4z"/><path class="cls-1" d="M119.42 62h-36a.61.61 0 0 1-.61-.61V56a.61.61 0 0 1 .61-.61h36a.61.61 0 0 1 .58.61v5.48a.61.61 0 0 1-.58.52zM84 60.83h34.8v-4.26H84z"/><circle class="cls-5" cx="101.41" cy="58.7" r="1.11"/><circle class="cls-5" cx="94.4" cy="58.7" r="1.11"/><circle class="cls-5" cx="87.39" cy="58.7" r="1.11"/><circle class="cls-5" cx="108.43" cy="58.7" r="1.11"/><circle class="cls-5" cx="115.46" cy="58.7" r="1.11"/><path class="cls-3" transform="rotate(-.1 34.337 45.867)" d="M31.8 37.67h5.58v19.09H31.8z"/><path class="cls-1" d="M31.82 57.33a.56.56 0 0 1-.56-.56V37.68a.56.56 0 0 1 .56-.56h5.58a.56.56 0 0 1 .56.56v19.09a.56.56 0 0 1-.56.56h-5.58zm.53-19.09v18h4.46v-18z"/><path class="cls-4" transform="rotate(-.1 34.347 34.407)" d="M29.36 34.48h10.4v3.36h-10.4z"/><path class="cls-1" d="M29.37 38.41a.56.56 0 0 1-.56-.56v-3.36a.56.56 0 0 1 .56-.56h10.4a.56.56 0 0 1 .56.56v3.36a.56.56 0 0 1-.56.56h-10.4zm.56-3.41v2.24h9.28V35z"/><path class="cls-3" transform="rotate(-.1 45.797 45.877)" d="M44 37.65h5.58v19.09H44z"/><path class="cls-1" d="M44 57.3a.56.56 0 0 1-.56-.56V37.65a.56.56 0 0 1 .56-.55h5.58a.56.56 0 0 1 .56.56v19.09a.56.56 0 0 1-.56.56H44zm.53-19.09v18H49v-18z"/><path class="cls-4" transform="rotate(-.1 45.807 34.417)" d="M41.57 34.46h10.4v3.36h-10.4z"/><path class="cls-1" d="M41.58 38.38a.56.56 0 0 1-.56-.56v-3.36a.56.56 0 0 1 .56-.56H52a.56.56 0 0 1 .56.56v3.34a.56.56 0 0 1-.56.56H41.58zm.55-3.38v2.24h9.28V35z"/><path class="cls-4" transform="rotate(-.1 45.787 57.336)" d="M30.26 56.9h33.08v4.51H30.26z"/><path class="cls-1" d="M30.28 62a.56.56 0 0 1-.56-.56v-4.51a.56.56 0 0 1 .56-.56l33.08-.06a.56.56 0 0 1 .56.56v4.51a.56.56 0 0 1-.56.56zm.55-4.51v3.39l32-.06v-3.39z"/><path class="cls-3" transform="rotate(-.1 57.256 45.887)" d="M56.2 37.64h5.58v19.09H56.2z"/><path class="cls-1" d="M56.22 57.28a.56.56 0 0 1-.56-.56V37.63a.56.56 0 0 1 .56-.56h5.58a.56.56 0 0 1 .56.56v19.09a.56.56 0 0 1-.56.56h-5.58zm.53-19.09v18h4.46v-18z"/><path class="cls-4" transform="rotate(-.1 57.266 34.427)" d="M53.77 34.45h10.4v3.36h-10.4z"/><path class="cls-1" d="M53.78 38.36a.56.56 0 0 1-.56-.56v-3.36a.56.56 0 0 1 .56-.56h10.4a.56.56 0 0 1 .56.56v3.36a.56.56 0 0 1-.56.56zm.55-3.36v2.24h9.28V35z"/><path class="cls-4" d="M65.99 34.42l-38.44.07v-1.92l19.2-8.36 19.24 8.29v1.92z"/><path class="cls-1" d="M27.55 35a.56.56 0 0 1-.56-.56v-1.87a.55.55 0 0 1 .34-.51l19.2-8.36a.55.55 0 0 1 .44 0L66.21 32a.56.56 0 0 1 .34.51v1.92A.56.56 0 0 1 66 35H27.55zm.56-2.11v1l37.32-.07v-1l-18.68-8zM34.6 54.53A.56.56 0 0 1 34 54V40.5a.56.56 0 0 1 .56-.56.56.56 0 0 1 .56.56V54a.56.56 0 0 1-.56.56zM46.8 54.5a.56.56 0 0 1-.56-.56v-13.5a.56.56 0 0 1 .56-.56.56.56 0 0 1 .56.56v13.5a.56.56 0 0 1-.56.56zM59 54.48a.56.56 0 0 1-.56-.56v-13.5a.56.56 0 0 1 .56-.56.56.56 0 0 1 .56.56v13.5a.56.56 0 0 1-.56.56z"/><circle class="cls-3" cx="46.76" cy="29.68" r="2.36" transform="rotate(-.1 45.812 28.688)"/><path class="cls-1" d="M46.76 32.59a2.93 2.93 0 1 1 2.92-3 2.89 2.89 0 0 1-.85 2.06 2.76 2.76 0 0 1-2.07.94zm0-4.72a1.8 1.8 0 0 0 0 3.6 1.8 1.8 0 0 0 1.8-1.8 1.8 1.8 0 0 0-1.8-1.8zM72.66 45.07h-.12a.74.74 0 0 1-.62-.84l.66-4.23a.74.74 0 0 1 1.47.23l-.66 4.26a.75.75 0 0 1-.73.58z"/><path class="cls-4" d="M78.4 43.33l.66-4.26c7.12-.88 14-10.9 15.67-21.85l-29.38-4.58c-1.71 10.94 1.76 22.57 8.27 25.58L73 42.48c-7.12.88-14 10.9-15.67 21.85l29.39 4.59C88.38 58 84.91 46.34 78.4 43.33z"/><path class="cls-1" d="M86.67 69.66h-.12l-29.38-4.6a.74.74 0 0 1-.62-.84c1.78-11.39 8.63-21.06 15.75-22.38l.5-3.19c-6.38-3.44-10-14.73-8.18-26.12a.74.74 0 0 1 .84-.62l29.39 4.59a.74.74 0 0 1 .62.84c-1.78 11.39-8.63 21-15.76 22.38l-.5 3.19c6.38 3.44 10 14.73 8.18 26.12a.75.75 0 0 1-.72.63zm-28.53-6L86 68.06c1.47-10.64-2-21.33-7.91-24.06a.74.74 0 0 1-.42-.79l.66-4.21a.74.74 0 0 1 .64-.62c6.44-.8 13-9.91 14.91-20.49L66 13.49c-1.43 10.64 2.06 21.33 8 24.06a.74.74 0 0 1 .42.79l-.66 4.26a.74.74 0 0 1-.64.62C66.6 44 60 53.13 58.14 63.71z"/><path class="cls-5" d="M91.12 28.37l-25.67-4c1 5.12 3.23 9.42 6.09 11.92h-.17a11.54 11.54 0 0 1 1.89 1.87 3.32 3.32 0 0 0-.39 1.52 3.3 3.3 0 1 0 6.51 1 3.3 3.3 0 0 0 .08-1.61 11.38 11.38 0 0 1 2.31-1.17h-.16c3.51-1.55 7.04-4.9 9.51-9.53zM75.81 68.38c3.32.51 6.64 1 10 1.53a10.47 10.47 0 0 0 .5-1.91c1-6.7-4.46-13.13-12.3-14.35s-15 3.22-16.09 9.92a10.57 10.57 0 0 0-.07 1.88q8.96 1.55 17.96 2.93z"/><path class="cls-1" d="M73 43.23h-.12a.74.74 0 0 1-.62-.84l.66-4.26a.74.74 0 0 1 1.47.23l-.66 4.26a.75.75 0 0 1-.73.61z"/><path class="cls-1" d="M86.67 69.66h-.12l-29.38-4.6a.74.74 0 0 1-.62-.84c1.82-11.69 9-21.56 16.32-22.47a.76.76 0 0 1 .83.65.74.74 0 0 1-.64.83c-6.44.8-13 9.91-14.91 20.49L86 68.06c1.47-10.64-2-21.33-7.91-24.06a.74.74 0 0 1-.42-.79l.66-4.21a.74.74 0 0 1 .64-.62c6.44-.8 13-9.91 14.91-20.49L66 13.49c-1.43 10.64 2.06 21.33 8 24.06a.74.74 0 0 1-.63 1.35c-6.7-3.1-10.52-14.69-8.69-26.38a.74.74 0 0 1 .84-.62l29.39 4.59a.74.74 0 0 1 .62.84c-1.83 11.4-8.68 21.06-15.81 22.39l-.5 3.19c6.38 3.44 10 14.73 8.18 26.12a.74.74 0 0 1-.73.63z"/><path class="cls-2" transform="rotate(-81.12 80.139 14.37)" d="M77.41-4.14h5.46v37.02h-5.46z"/><path class="cls-1" d="M98 20.66h-.12l-36.57-5.72a.74.74 0 0 1-.62-.84l.84-5.39a.75.75 0 0 1 .85-.62L99 13.78a.74.74 0 0 1 .62.84L98.74 20a.74.74 0 0 1-.74.66zm-35.72-7.08l35.1 5.48.62-3.92-35.11-5.48z"/><path class="cls-2" transform="rotate(-81.12 71.551 69.317)" d="M68.82 50.81h5.46v37.02h-5.46z"/><path class="cls-1" d="M89.42 75.61h-.12l-36.57-5.72a.74.74 0 0 1-.62-.84l.89-5.4a.75.75 0 0 1 .84-.65l36.57 5.71a.74.74 0 0 1 .62.84L90.15 75a.75.75 0 0 1-.73.61zM53.7 68.54L88.8 74l.61-3.92-35.1-5.48z"/></g></svg>