<svg id="Layer_1" data-name="Layer 1" xmlns="http://www.w3.org/2000/svg" viewBox="0 0 149 81.95"><defs><style>.cls-1{fill:#272425}.cls-2{fill:#fff}.cls-3{fill:#c65254}</style></defs><g id="Layer_1-2" data-name="Layer 1-2"><path class="cls-1" d="M64.48 61.4h-47a.75.75 0 1 1 0-1.49h47a.75.75 0 1 1 0 1.49zM13.34 61.4h-2.65a.75.75 0 0 1 0-1.49h2.65a.75.75 0 1 1 0 1.49zM133.82 55.52H81.9a.75.75 0 1 1 0-1.49h51.92a.75.75 0 0 1 0 1.49zM140.59 55.52h-2.65a.75.75 0 0 1 0-1.49h2.65a.75.75 0 0 1 0 1.49z"/><circle class="cls-2" cx="87.22" cy="40.94" r="30.9"/><path class="cls-1" d="M87.22 72.58a31.64 31.64 0 1 1 31.65-31.64 31.64 31.64 0 0 1-31.65 31.64zm0-61.79a30.15 30.15 0 1 0 30.16 30.15 30.15 30.15 0 0 0-30.16-30.15z"/><path class="cls-3" d="M116.33 31.19a30.63 30.63 0 0 0-20-19.44l-5.07 1.7a1.15 1.15 0 0 0-.77.89l-.22 1.23a1.89 1.89 0 0 0 .67 1.79l4.18 3.4-2.47 4.62L94 27.21l-2.91 1a1.35 1.35 0 0 0-.84 1.79l.75 2a1.27 1.27 0 0 0 .6.69 1.29 1.29 0 0 0 .91.11L97 31.72l2-3.18 1.75-1.4 6.41-.36 2.72-2.57 1.29 2.44a1 1 0 0 1-.37 1.35h-.07l-7.16 3.65-7.89 2.18a1.73 1.73 0 0 0-.63.32 1.7 1.7 0 0 0-.44.55L92.38 39l-1.29 8.33A3.81 3.81 0 0 0 92.64 51l5.31 3.8a3.08 3.08 0 0 0 3.55 0l5.26-3.65a1.42 1.42 0 0 1 2 .32l2.91 4.16-.41 4.37a30.49 30.49 0 0 0 5.07-28.81zM106.85 23a1.45 1.45 0 0 1-1.89-.22l-2-2.2 2.76-.93 2.7 2.29zM81.89 62.91a3.6 3.6 0 0 0-2.63-1.21l-6.16-.12-7.36-9.09a1.17 1.17 0 0 0-.95-.43l-3.13.1a1.11 1.11 0 0 0-.92.54 1.09 1.09 0 0 0 0 1.06l4.4 8.49a30.91 30.91 0 0 0 15.6 8.64l3.76-2.57a1.47 1.47 0 0 0 .38-2l-.11-.14zM87.29 24.74l-.5-1.49a.48.48 0 0 0-.25-.28.49.49 0 0 0-.37 0l-.4.14-.14 1.55a.45.45 0 0 0 .6.47z"/><path class="cls-3" d="M91.79 23.49a.81.81 0 0 0 .26-.6.82.82 0 0 0-.26-.59l-2.61-2.37a1 1 0 0 0-1.48.17l-.48.68 1.28 3.76a1.06 1.06 0 0 0 1.72.43zM76.45 12.32a30.61 30.61 0 0 0-20 28.82v.67l4.15-1.46L61.87 44a1.11 1.11 0 0 0 .57.65 1.13 1.13 0 0 0 .86.06l.94-.31a1.34 1.34 0 0 0 .89-1.51L64 36.66 70.9 30a1.77 1.77 0 0 0 .45-.7 1.81 1.81 0 0 0 .09-.83l-.72-5.72 4-5.3 2.38.22-2.26 3.16a1.09 1.09 0 0 0 .57 1.68l.75.23a1.27 1.27 0 0 0 1.36-.42l5.13-6.42a1.26 1.26 0 0 0-.64-2z"/><path class="cls-1" d="M87.28 72.21a31.27 31.27 0 1 1 31.27-31.27 31.27 31.27 0 0 1-31.27 31.27zm0-61.8a30.52 30.52 0 1 0 30.53 30.53 30.52 30.52 0 0 0-30.53-30.53z"/><path class="cls-1" d="M87 72.58a31.64 31.64 0 1 1 31.7-31.64A31.64 31.64 0 0 1 87 72.58zm0-61.79a30.15 30.15 0 1 0 30.16 30.15A30.15 30.15 0 0 0 87 10.79z"/><path d="M79.28 25a2.35 2.35 0 0 1 1.8.58 2.75 2.75 0 0 1 .92 1.75l3.15 28.52a2.75 2.75 0 0 1-.51 1.94 2.35 2.35 0 0 1-1.63 1l-5 .64-4.31 5.75-5.44-4.72L28.56 65a2.35 2.35 0 0 1-1.8-.58 2.75 2.75 0 0 1-.92-1.78l-3.15-28.51a2.75 2.75 0 0 1 .51-1.94 2.35 2.35 0 0 1 1.63-1z" fill="#d17f24"/><path class="cls-1" d="M73.7 65.74a.55.55 0 0 1-.37-.14L68.07 61l-39.45 4.57a2.9 2.9 0 0 1-2.23-.71 3.32 3.32 0 0 1-1.11-2.14l-3.15-28.53a3.29 3.29 0 0 1 .61-2.33 2.91 2.91 0 0 1 2-1.18l54.45-6.26a2.89 2.89 0 0 1 2.23.71 3.31 3.31 0 0 1 1.11 2.14l3.18 28.53a3.29 3.29 0 0 1-.61 2.33 2.91 2.91 0 0 1-2 1.18l-4.79.61-4.14 5.6a.56.56 0 0 1-.39.22zm5.65-40.21l-54.46 6.26a1.79 1.79 0 0 0-1.25.74 2.18 2.18 0 0 0-.4 1.54l3.16 28.52a2.18 2.18 0 0 0 .72 1.41 1.77 1.77 0 0 0 1.38.45l39.69-4.55a.54.54 0 0 1 .43.13l5 4.32L77.54 59a.56.56 0 0 1 .38-.22l5-.64a1.8 1.8 0 0 0 1.26-.74 2.17 2.17 0 0 0 .4-1.54l-3.13-28.47a2.17 2.17 0 0 0-.73-1.39 1.79 1.79 0 0 0-1.38-.44z"/><path fill="#dec33a" d="M30.58 61.04l49.59-5.73-2.87-25.97-49.59 5.72 2.87 25.98z"/><path class="cls-1" d="M30.58 61.6a.56.56 0 0 1-.56-.5l-2.87-26a.56.56 0 0 1 .49-.62l49.59-5.72a.56.56 0 0 1 .62.49l2.87 26a.56.56 0 0 1-.49.62l-49.59 5.72zm-2.25-26l2.75 24.87 48.48-5.59L76.81 30z"/><path class="cls-2" d="M28.24 56.44l53.21-6.13-1.8-16.37-53.22 6.12 1.81 16.38z"/><path class="cls-1" d="M28.24 57a.56.56 0 0 1-.56-.5l-1.81-16.38a.56.56 0 0 1 .49-.62l53.22-6.12a.53.53 0 0 1 .41.12.56.56 0 0 1 .21.38L82 50.25a.56.56 0 0 1-.49.62L28.3 57zM27 40.55l1.69 15.27 52.11-6-1.65-15.26z"/><circle class="cls-1" cx="48.65" cy="45.8" r="1.37" transform="rotate(-6.56 48.671 45.768)"/><circle class="cls-1" cx="53.56" cy="45.26" r="1.36" transform="rotate(-6.34 53.548 45.256)"/><circle class="cls-1" cx="59.24" cy="44.58" r="1.37" transform="rotate(-6.56 59.24 44.623)"/><path class="cls-1" d="M17.46 13.59a.47.47 0 0 1-.47-.47v-1.19a.47.47 0 1 1 .93 0v1.19a.46.46 0 0 1-.45.47zM18.85 14.16a.47.47 0 0 1-.33-.8l.84-.84a.47.47 0 0 1 .66.66l-.84.84a.46.46 0 0 1-.33.14zM20.61 15.56h-1.19a.47.47 0 0 1 0-.93h1.19a.47.47 0 0 1 0 .93zM19.69 17.79a.46.46 0 0 1-.33-.14l-.84-.84a.47.47 0 0 1 .66-.66L20 17a.46.46 0 0 1-.31.79zM17.46 18.71a.47.47 0 0 1-.47-.47v-1.18a.47.47 0 0 1 .93 0v1.19a.47.47 0 0 1-.46.46zM15.22 17.79a.47.47 0 0 1-.33-.8l.84-.84a.47.47 0 0 1 .66.66l-.84.84a.46.46 0 0 1-.33.14zM15.49 15.56H14.3a.47.47 0 0 1 0-.93h1.19a.47.47 0 1 1 .14.93zM16.06 14.16a.46.46 0 0 1-.33-.14l-.84-.84a.47.47 0 0 1 .66-.66l.84.84a.47.47 0 0 1-.33.8z"/></g></svg>