<svg id="Layer_1" data-name="Layer 1" xmlns="http://www.w3.org/2000/svg" viewBox="0 0 149 81.95"><defs><style>.cls-1{fill:#272425}.cls-2{fill:#d17f24}.cls-3{fill:#fff}</style></defs><g id="Layer_1-2" data-name="Layer 1-2"><path class="cls-1" d="M134.91 48.52h-26.78a.75.75 0 1 1 0-1.49h26.78a.75.75 0 0 1 0 1.49zM141.66 48.52h-2.37a.75.75 0 0 1 0-1.49h2.37a.75.75 0 0 1 0 1.49z"/><path class="cls-2" transform="rotate(-10.27 88.003 43.076)" d="M55.27 22.47h65.47v41.22H55.27z"/><path class="cls-1" d="M59.48 69.94a.74.74 0 0 1-.42-.13.75.75 0 0 1-.31-.48l-7.36-40.56a.75.75 0 0 1 .6-.87l64.42-11.68a.74.74 0 0 1 .87.59l7.35 40.56a.74.74 0 0 1-.12.56.76.76 0 0 1-.48.31L59.61 69.93zM53 29.24l7.08 39.09 63-11.41L116 17.83zM33.56 18.24A.74.74 0 0 1 33 17l2.37-2.37a.74.74 0 0 1 1 1.05L34.09 18a.73.73 0 0 1-.53.24z"/><path class="cls-1" d="M35.94 18.24a.74.74 0 0 1-.53-.22L33 15.65a.74.74 0 0 1 1-1.05l2.46 2.4a.74.74 0 0 1 0 1 .73.73 0 0 1-.52.24z"/><path class="cls-3" transform="rotate(-84.39 89.033 41.478)" d="M68.79 9.13h40.48v64.7H68.79z"/><path class="cls-1" d="M119.25 65.53h-.07l-64.4-6.33a.74.74 0 0 1-.67-.8l4-40.28a.75.75 0 0 1 .81-.67l64.39 6.33a.74.74 0 0 1 .67.8l-4 40.28a.74.74 0 0 1-.27.5.73.73 0 0 1-.46.17zm-63.58-7.74L118.58 64l3.81-38.8L59.48 19z"/><path transform="rotate(-84.53 110.295 34.75)" fill="#dec33a" d="M105.84 30.29h8.91v8.91h-8.91z"/><path class="cls-1" d="M114.3 40.3h-.07l-8.87-.85a.7.7 0 0 1-.47-.25.69.69 0 0 1-.16-.51l.85-8.87a.68.68 0 0 1 .72-.63l8.87.85a.7.7 0 0 1 .47.25.69.69 0 0 1 .16.51l-.8 8.87a.7.7 0 0 1-.7.63zm-8.11-2.18l7.48.72.72-7.48-7.48-.72zM100.94 36.47h-.07L97 36.1a.74.74 0 0 1 .14-1.48L101 35a.75.75 0 0 1-.07 1.49zM101.21 33.62h-.07l-3.89-.37a.74.74 0 0 1-.67-.8.73.73 0 0 1 .78-.67l3.89.37a.75.75 0 0 1-.07 1.49zM78.7 35.87h-.05a.56.56 0 0 1-.5-.61l.61-6.35a.54.54 0 0 1 .57-.5.56.56 0 0 1 .5.61l-.61 6.35a.56.56 0 0 1-.52.5z"/><path class="cls-1" d="M82.18 33h-.05l-6.36-.61a.56.56 0 1 1 0-1.12h.1l6.35.61a.56.56 0 0 1 0 1.11z"/><path transform="rotate(-84.53 108.656 51.453)" fill="#c65254" d="M104.2 47h8.91v8.91h-8.91z"/><path class="cls-1" d="M112.66 57h-.07l-8.87-.85a.7.7 0 0 1-.47-.25.69.69 0 0 1-.16-.51l.85-8.87a.7.7 0 0 1 .76-.63l8.87.85a.7.7 0 0 1 .63.76l-.85 8.87a.69.69 0 0 1-.25.47.7.7 0 0 1-.44.16zm-8.11-2.18l7.48.72.72-7.48-7.48-.72zM99.3 53.17h-.07l-3.89-.37a.74.74 0 0 1 .14-1.48l3.89.37a.75.75 0 0 1-.07 1.49zM99.57 50.32h-.07L95.61 50a.74.74 0 0 1 .14-1.48l3.89.37a.75.75 0 0 1-.07 1.49zM81.09 49.75H81l-6.35-.61a.56.56 0 0 1 .1-1.11l6.35.61a.56.56 0 0 1-.1 1.12zM72.25 34.79l-.18 1.85-7-.69v-.4a6.67 6.67 0 0 1 .26-1.36 3.68 3.68 0 0 1 .55-1.08 4.63 4.63 0 0 1 .92-.93 9.81 9.81 0 0 1 1.39-.88 13 13 0 0 0 1.18-.7A2.32 2.32 0 0 0 70 30a1.38 1.38 0 0 0 .23-.64q.13-1.3-1.54-1.46a4.15 4.15 0 0 0-1.37.09 4.65 4.65 0 0 0-1.34.57l.19-1.89a6 6 0 0 1 1.53-.48 6.27 6.27 0 0 1 1.63 0 4.44 4.44 0 0 1 1.77.52 2.79 2.79 0 0 1 1.1 1.09 2.58 2.58 0 0 1 .28 1.52 4 4 0 0 1-.21 1 2.53 2.53 0 0 1-.47.81 4.17 4.17 0 0 1-.82.72 10.76 10.76 0 0 1-1.25.72 10.7 10.7 0 0 0-1.09.61 4.64 4.64 0 0 0-.72.58 2.32 2.32 0 0 0-.45.62zM85.45 34.35q1.25-1.5 2.54-2.94t2.74-3l2.19.22L92.3 35l1.07.1-.16 1.65-1.07-.1-.19 1.91-2-.2.19-1.91-4.85-.45zm4.82.49l.39-4L89 32.7q-.83.93-1.61 1.86zM70.83 50.69a3 3 0 0 1-.66 1.69 3.11 3.11 0 0 1-1.53 1 5.86 5.86 0 0 1-2.27.16 8.28 8.28 0 0 1-1.52-.29 6.77 6.77 0 0 1-1.39-.57l.18-1.79a6.8 6.8 0 0 0 2.79.91 2.66 2.66 0 0 0 1.6-.24 1.31 1.31 0 0 0 .64-1.07q.15-1.48-2.13-1.7c-.37 0-.74-.06-1.11-.06h-1.26l1-5.57 5.82.57-.18 1.82-4-.39-.37 2a6.23 6.23 0 0 1 .64 0h.56a4.34 4.34 0 0 1 1.83.55 2.75 2.75 0 0 1 1.1 1.29 3.23 3.23 0 0 1 .26 1.69zM91.52 53a2.61 2.61 0 0 1-.65 1.54 3.09 3.09 0 0 1-1.49.88 5.9 5.9 0 0 1-2.19.14 8.15 8.15 0 0 1-1.5-.28 5.82 5.82 0 0 1-1.37-.6l.18-1.81a7.47 7.47 0 0 0 1.28.61 5.89 5.89 0 0 0 1.45.32 2.61 2.61 0 0 0 1.51-.2 1.27 1.27 0 0 0 .2-2 2.57 2.57 0 0 0-1.42-.48L86 50.94l.17-1.68 1.44.14a2.38 2.38 0 0 0 1.39-.2 1.12 1.12 0 0 0 .57-.91 1 1 0 0 0-.37-.88A2.38 2.38 0 0 0 88 47a5.6 5.6 0 0 0-1 0 5.67 5.67 0 0 0-.88.14 5.93 5.93 0 0 0-.88.29l.17-1.77a6.56 6.56 0 0 1 3-.37 5.24 5.24 0 0 1 1.89.51 2.77 2.77 0 0 1 1.16 1 2.46 2.46 0 0 1-.27 2.78 2.75 2.75 0 0 1-1.31.78 2.85 2.85 0 0 1 1.28 1.06 2.43 2.43 0 0 1 .36 1.58zM40.28 60.76H13.5a.75.75 0 1 1 0-1.49h26.78a.75.75 0 1 1 0 1.49zM9.12 60.76H6.75a.75.75 0 0 1 0-1.49h2.37a.75.75 0 0 1 0 1.49z"/><path class="cls-3" transform="rotate(-17.78 41.62 47.543)" d="M26.2 28.22h30.84v38.63H26.2z"/><path class="cls-1" d="M32.84 71.39a.74.74 0 0 1-.71-.52l-11.8-36.79a.75.75 0 0 1 0-.57.74.74 0 0 1 .43-.37l29.37-9.42a.74.74 0 0 1 .94.47L62.91 61a.75.75 0 0 1 0 .57.74.74 0 0 1-.43.37l-29.41 9.41a.75.75 0 0 1-.23.04zM22 34.34l11.32 35.37 28-9-11.4-35.34z"/><path class="cls-2" transform="rotate(-17.78 37.321 34.197)" d="M24.76 31.94h25.16v4.5H24.76z"/><path class="cls-1" d="M26 40.92a.75.75 0 0 1-.34-.08.74.74 0 0 1-.37-.43L24 36.12a.74.74 0 0 1 .47-.94l24-7.68a.75.75 0 0 1 .57 0 .74.74 0 0 1 .37.43l1.37 4.28a.74.74 0 0 1-.47.94l-24 7.68a.72.72 0 0 1-.31.09zm-.44-4.54l.92 2.86L49.07 32l-.92-2.86z"/><path fill="none" d="M24.25 43.87l29.37-9.42"/><path class="cls-1" d="M24.25 44.61a.75.75 0 0 1-.25-1.45l29.37-9.42a.75.75 0 1 1 .63 1.37l-.17.05-29.35 9.42a.75.75 0 0 1-.23.03zM31.3 51.6a.75.75 0 0 1-.34-.08.74.74 0 0 1-.37-.43l-1.5-4.67a.74.74 0 0 1 .47-.94L34.24 44a.74.74 0 0 1 .94.47l1.5 4.66a.74.74 0 0 1-.47.94l-4.67 1.5a.86.86 0 0 1-.24.03zm-.56-4.93l1 3.25 3.25-1-1-3.25zM39.29 49a.75.75 0 0 1-.29 0 .74.74 0 0 1-.37-.43l-1.5-4.67a.74.74 0 0 1 .47-.9l4.66-1.5a.75.75 0 0 1 .57 0 .74.74 0 0 1 .37.43l1.5 4.67a.74.74 0 0 1-.47.94L39.52 49a.79.79 0 0 1-.23 0zm-.56-4.93l1 3.25 3.25-1-1-3.25zM47.28 46.47a.74.74 0 0 1-.71-.52l-1.5-4.67a.74.74 0 0 1 .47-.94l4.67-1.5a.75.75 0 0 1 .94.48l1.5 4.68a.74.74 0 0 1-.47.94l-4.67 1.5a.73.73 0 0 1-.23.03zm-.56-4.93l1 3.25 3.25-1L50 40.5zM33.64 58.88a.74.74 0 0 1-.71-.52l-1.5-4.67a.74.74 0 0 1 .47-.94l4.67-1.5a.74.74 0 0 1 .94.47l1.49 4.7a.74.74 0 0 1-.47.94l-4.67 1.5zM33.08 54l1 3.25 3.25-1-1-3.25zM41.63 56.32a.74.74 0 0 1-.71-.52l-1.5-4.67a.74.74 0 0 1 .47-.94l4.66-1.5a.74.74 0 0 1 .94.47L47 53.85a.74.74 0 0 1-.47.94l-4.67 1.5a.75.75 0 0 1-.23.03zm-.56-4.93l1 3.25 3.25-1-1-3.25zM36 66.17a.74.74 0 0 1-.71-.52L33.77 61a.74.74 0 0 1 .47-.94l4.67-1.5a.74.74 0 0 1 .94.47l1.5 4.67a.74.74 0 0 1-.47.94l-4.67 1.5a.73.73 0 0 1-.21.03zm-.56-4.93l1 3.25 3.25-1-1-3.25zM44 63.61a.74.74 0 0 1-.71-.52l-1.5-4.67a.74.74 0 0 1 .47-.94L46.9 56a.74.74 0 0 1 .94.47l1.5 4.67a.74.74 0 0 1-.47.94l-4.67 1.5zm-.56-4.93l1 3.25 3.25-1-1-3.25zM52 61a.74.74 0 0 1-.71-.52l-3.83-12a.75.75 0 0 1 0-.57.74.74 0 0 1 .43-.37L52.56 46a.75.75 0 0 1 .94.48l3.83 12a.74.74 0 0 1-.47.94L52.18 61zm-2.9-12.22l3.38 10.53 3.25-1-3.43-10.52z"/></g></svg>