<?xml version="1.0" encoding="iso-8859-1"?>
<!-- Generator: Adobe Illustrator 20.1.0, SVG Export Plug-In . SVG Version: 6.00 Build 0)  -->
<svg version="1.1" xmlns="http://www.w3.org/2000/svg" xmlns:xlink="http://www.w3.org/1999/xlink" x="0px" y="0px"
	 viewBox="0 0 80 44" style="enable-background:new 0 0 80 44;" xml:space="preserve">
<g id="Layer_1">
	<g>
		<g>
			<g>
				<g>
					<path style="fill:#DEC33A;" d="M34.436,25.783c0,0,4.433-1.792,5.557,3.42C39.992,29.203,35.677,31.539,34.436,25.783z"/>
					<path style="fill:#272425;" d="M38.06,30.073c-0.473,0-0.983-0.083-1.487-0.315c-1.244-0.572-2.094-1.881-2.528-3.891
						c-0.041-0.19,0.061-0.382,0.241-0.455c0.083-0.034,2.021-0.798,3.77,0.129c1.166,0.618,1.949,1.821,2.328,3.578
						c0.038,0.174-0.044,0.352-0.201,0.436C40.129,29.584,39.207,30.073,38.06,30.073z M34.909,26.051
						c0.392,1.546,1.061,2.547,1.992,2.978c1.016,0.469,2.124,0.144,2.626-0.055c-0.345-1.34-0.963-2.255-1.841-2.723
						C36.645,25.696,35.466,25.901,34.909,26.051z"/>
				</g>
				<g>
					<path style="fill:#D17F24;" d="M36.825,27.242c0,0,1.037,1.55,3.167,1.961"/>
					<path style="fill:#272425;" d="M39.993,29.603c-0.025,0-0.051-0.002-0.076-0.007c-2.268-0.437-3.377-2.062-3.424-2.131
						c-0.123-0.183-0.073-0.43,0.109-0.553c0.183-0.124,0.431-0.074,0.555,0.107c0.01,0.014,0.982,1.42,2.911,1.792
						c0.217,0.042,0.359,0.251,0.317,0.468C40.348,29.47,40.181,29.603,39.993,29.603z"/>
				</g>
			</g>
			<g>
				<g>
					<path style="fill:#DEC33A;" d="M45.549,25.783c0,0-4.433-1.792-5.557,3.42C39.992,29.203,44.308,31.539,45.549,25.783z"/>
					<path style="fill:#272425;" d="M41.925,30.073c-1.148,0-2.069-0.489-2.123-0.518c-0.156-0.084-0.238-0.262-0.201-0.436
						c0.379-1.756,1.162-2.96,2.328-3.578c1.751-0.925,3.688-0.163,3.771-0.129c0.18,0.073,0.281,0.265,0.24,0.455
						c-0.433,2.01-1.283,3.319-2.527,3.891C42.908,29.99,42.397,30.073,41.925,30.073z M40.457,28.974
						c0.503,0.2,1.612,0.525,2.626,0.055c0.931-0.431,1.601-1.432,1.992-2.978c-0.557-0.15-1.734-0.355-2.777,0.2
						C41.42,26.718,40.802,27.633,40.457,28.974z"/>
				</g>
				<g>
					<path style="fill:#D17F24;" d="M43.159,27.242c0,0-1.037,1.55-3.167,1.961"/>
					<path style="fill:#272425;" d="M39.992,29.603c-0.188,0-0.355-0.133-0.392-0.324c-0.042-0.217,0.1-0.427,0.317-0.468
						c1.944-0.375,2.901-1.777,2.911-1.791c0.123-0.185,0.372-0.231,0.555-0.11c0.184,0.123,0.232,0.371,0.109,0.555
						c-0.046,0.069-1.155,1.694-3.423,2.131C40.042,29.601,40.017,29.603,39.992,29.603z"/>
				</g>
			</g>
			<g>
				<path style="fill:#272425;" d="M42.459,35.762c-1.583,0-2.867-1.284-2.867-2.863V15.725c0-0.221,0.179-0.4,0.4-0.4
					s0.4,0.179,0.4,0.4v17.175c0,1.138,0.925,2.063,2.063,2.063l0.441-0.004c0.001,0,0.003,0,0.004,0c0.219,0,0.397,0.176,0.4,0.396
					c0.002,0.221-0.176,0.402-0.396,0.404L42.459,35.762z"/>
			</g>
			<g>
				<g>
					<path style="fill:#272425;" d="M37.498,35.762l-0.449-0.004c-0.221-0.002-0.398-0.183-0.396-0.404
						c0.002-0.221,0.151-0.42,0.404-0.396l0.445,0.004c1.134,0,2.059-0.925,2.059-2.063V15.725c0-0.221,0.179-0.4,0.4-0.4
						s0.4,0.179,0.4,0.4v17.175C40.361,34.478,39.077,35.762,37.498,35.762z"/>
				</g>
			</g>
			<g>
				<g>
					<path style="fill:#FFFFFF;" d="M32.523,13.346c0-0.612,0.419-1.122,0.984-1.272c-0.467-0.352-0.662-0.983-0.43-1.55
						c0.241-0.591,0.86-0.912,1.464-0.8c-0.337-0.513-0.281-1.208,0.17-1.659c0.433-0.433,1.09-0.498,1.595-0.204
						c-0.081-0.579,0.227-1.163,0.792-1.4c0.588-0.247,1.254-0.037,1.601,0.469c0.124-0.601,0.656-1.053,1.294-1.053
						c0.612,0,1.122,0.419,1.272,0.984c0.352-0.467,0.983-0.662,1.55-0.43c0.591,0.241,0.912,0.86,0.8,1.464
						c0.513-0.337,1.208-0.281,1.659,0.17c0.433,0.433,0.498,1.09,0.204,1.595c0.579-0.081,1.163,0.227,1.4,0.792
						c0.247,0.588,0.037,1.254-0.469,1.601c0.601,0.124,1.053,0.656,1.053,1.294c0,0.612-0.419,1.122-0.984,1.272
						c0.467,0.352,0.662,0.983,0.43,1.55c-0.241,0.591-0.86,0.912-1.464,0.8c0.337,0.513,0.281,1.208-0.17,1.659
						c-0.433,0.433-1.09,0.498-1.595,0.204c0.081,0.579-0.227,1.163-0.792,1.4c-0.588,0.247-1.254,0.037-1.601-0.469
						c-0.124,0.601-0.656,1.053-1.294,1.053c-0.612,0-1.122-0.419-1.272-0.984c-0.352,0.467-0.983,0.662-1.55,0.43
						c-0.591-0.241-0.912-0.86-0.8-1.464c-0.513,0.337-1.208,0.281-1.659-0.17c-0.433-0.433-0.498-1.09-0.204-1.595
						c-0.579,0.081-1.163-0.227-1.4-0.792c-0.247-0.588-0.037-1.254,0.469-1.601C32.975,14.516,32.523,13.984,32.523,13.346z"/>
					<path style="fill:#272425;" d="M39.992,21.215c-0.568,0-1.086-0.282-1.401-0.728c-0.461,0.294-1.047,0.359-1.572,0.145
						c-0.543-0.221-0.923-0.701-1.036-1.251c-0.549,0.11-1.139-0.055-1.555-0.469c-0.402-0.402-0.568-0.967-0.476-1.506
						c-0.534-0.118-0.994-0.486-1.214-1.01c-0.228-0.541-0.156-1.148,0.152-1.617c-0.466-0.312-0.767-0.845-0.767-1.432
						c0-0.568,0.282-1.085,0.728-1.401c-0.294-0.46-0.359-1.046-0.146-1.572c0.222-0.543,0.702-0.923,1.252-1.036
						c-0.109-0.551,0.055-1.14,0.47-1.555c0.401-0.402,0.965-0.567,1.505-0.476c0.118-0.534,0.485-0.994,1.009-1.214
						c0.54-0.228,1.148-0.156,1.617,0.152c0.312-0.466,0.845-0.767,1.432-0.767c0.568,0,1.085,0.282,1.401,0.729
						c0.461-0.295,1.049-0.358,1.572-0.146c0.543,0.222,0.923,0.702,1.035,1.252c0.554-0.109,1.141,0.055,1.555,0.469
						c0.402,0.402,0.569,0.967,0.477,1.506c0.534,0.118,0.994,0.485,1.215,1.009c0.227,0.541,0.155,1.148-0.153,1.618
						c0.467,0.312,0.768,0.845,0.768,1.432c0,0.568-0.282,1.085-0.729,1.401c0.294,0.46,0.359,1.046,0.145,1.573
						c-0.221,0.543-0.7,0.923-1.251,1.036c0.108,0.551-0.056,1.141-0.47,1.555c-0.402,0.402-0.97,0.567-1.506,0.476
						c-0.118,0.534-0.485,0.995-1.009,1.214c-0.542,0.228-1.147,0.156-1.618-0.152C41.111,20.915,40.579,21.215,39.992,21.215z
						 M38.72,19.432c0.025,0,0.051,0.002,0.077,0.007c0.15,0.03,0.271,0.143,0.31,0.291c0.107,0.404,0.471,0.686,0.885,0.686
						c0.435,0,0.814-0.309,0.902-0.734c0.032-0.157,0.155-0.279,0.312-0.311c0.157-0.031,0.318,0.033,0.409,0.166
						c0.245,0.358,0.715,0.497,1.115,0.327c0.382-0.161,0.608-0.562,0.551-0.977c-0.021-0.151,0.047-0.302,0.174-0.387
						c0.127-0.085,0.291-0.09,0.424-0.014c0.362,0.211,0.818,0.152,1.11-0.141c0.308-0.308,0.358-0.794,0.12-1.157
						c-0.088-0.134-0.088-0.308,0.001-0.441s0.251-0.203,0.406-0.171c0.423,0.078,0.855-0.155,1.02-0.558
						c0.156-0.384,0.033-0.828-0.301-1.08c-0.122-0.092-0.181-0.246-0.151-0.396c0.029-0.15,0.143-0.271,0.29-0.31
						c0.404-0.107,0.686-0.471,0.686-0.886c0-0.435-0.308-0.814-0.733-0.902c-0.157-0.032-0.279-0.155-0.312-0.312
						c-0.031-0.157,0.034-0.318,0.166-0.409c0.358-0.246,0.496-0.715,0.327-1.117c-0.16-0.381-0.546-0.607-0.977-0.55
						c-0.145,0.023-0.301-0.046-0.387-0.173c-0.085-0.127-0.091-0.292-0.014-0.424c0.21-0.361,0.152-0.818-0.141-1.111
						c-0.309-0.309-0.796-0.357-1.157-0.119c-0.134,0.088-0.308,0.087-0.441-0.001c-0.133-0.088-0.201-0.249-0.172-0.406
						c0.08-0.427-0.155-0.856-0.558-1.021c-0.387-0.157-0.828-0.033-1.079,0.301c-0.092,0.122-0.243,0.178-0.396,0.151
						c-0.149-0.029-0.27-0.142-0.31-0.29c-0.107-0.404-0.472-0.687-0.886-0.687c-0.435,0-0.814,0.309-0.902,0.733
						c-0.032,0.157-0.155,0.28-0.312,0.312s-0.318-0.034-0.409-0.166c-0.245-0.357-0.713-0.495-1.117-0.327
						c-0.382,0.161-0.608,0.562-0.55,0.976c0.021,0.152-0.046,0.302-0.173,0.388c-0.127,0.086-0.291,0.091-0.424,0.014
						c-0.361-0.209-0.818-0.152-1.112,0.141c-0.308,0.308-0.357,0.794-0.119,1.157c0.088,0.134,0.088,0.308-0.001,0.441
						c-0.089,0.133-0.251,0.2-0.406,0.172c-0.428-0.079-0.855,0.156-1.021,0.558c-0.156,0.383-0.032,0.827,0.301,1.08
						c0.122,0.092,0.181,0.246,0.151,0.396c-0.03,0.15-0.142,0.27-0.29,0.31c-0.404,0.107-0.686,0.471-0.686,0.885
						c0,0.435,0.309,0.814,0.734,0.902c0.157,0.032,0.279,0.155,0.311,0.312s-0.034,0.318-0.166,0.409
						c-0.358,0.246-0.496,0.715-0.327,1.116c0.161,0.381,0.562,0.604,0.976,0.551c0.156-0.023,0.302,0.046,0.387,0.173
						c0.085,0.127,0.091,0.292,0.014,0.424c-0.209,0.362-0.152,0.819,0.141,1.112c0.308,0.307,0.794,0.356,1.157,0.119
						c0.133-0.088,0.307-0.089,0.441,0.001c0.134,0.088,0.201,0.249,0.172,0.406c-0.079,0.427,0.155,0.856,0.558,1.02
						c0.384,0.157,0.828,0.034,1.08-0.301C38.478,19.489,38.596,19.432,38.72,19.432z"/>
				</g>
				<g>
					<circle style="fill:#D17F24;" cx="39.992" cy="13.346" r="2.955"/>
					<path style="fill:#272425;" d="M39.992,16.702c-1.85,0-3.355-1.505-3.355-3.355s1.505-3.355,3.355-3.355
						c1.85,0,3.355,1.505,3.355,3.355S41.842,16.702,39.992,16.702z M39.992,10.791c-1.409,0-2.555,1.146-2.555,2.555
						c0,1.409,1.146,2.556,2.555,2.556c1.409,0,2.555-1.146,2.555-2.556C42.547,11.938,41.401,10.791,39.992,10.791z"/>
				</g>
			</g>
		</g>
		<g>
			<g>
				<path style="fill:#272425;" d="M73.825,35.762H56.899c-0.221,0-0.4-0.179-0.4-0.4s0.18-0.4,0.4-0.4h16.926
					c0.221,0,0.4,0.179,0.4,0.4S74.046,35.762,73.825,35.762z"/>
			</g>
			<g>
				<path style="fill:#272425;" d="M77.337,35.762h-1.233c-0.221,0-0.4-0.179-0.4-0.4s0.18-0.4,0.4-0.4h1.233
					c0.221,0,0.4,0.179,0.4,0.4S77.558,35.762,77.337,35.762z"/>
			</g>
		</g>
		<g>
			<path style="fill:#272425;" d="M20.775,35.391H6.85c-0.221,0-0.4-0.179-0.4-0.4s0.179-0.4,0.4-0.4h13.926
				c0.221,0,0.4,0.179,0.4,0.4S20.996,35.391,20.775,35.391z"/>
		</g>
		<g>
			<path style="fill:#272425;" d="M4.571,35.391H3.337c-0.221,0-0.4-0.179-0.4-0.4s0.179-0.4,0.4-0.4h1.233
				c0.221,0,0.4,0.179,0.4,0.4S4.792,35.391,4.571,35.391z"/>
		</g>
		<g>
			<g>
				<path style="fill:#272425;" d="M67.619,20.188c-0.103,0-0.205-0.039-0.283-0.117l-1.589-1.59c-0.156-0.156-0.156-0.41,0-0.565
					c0.156-0.156,0.41-0.156,0.566,0l1.589,1.59c0.156,0.156,0.156,0.41,0,0.565C67.824,20.149,67.722,20.188,67.619,20.188z"/>
			</g>
			<g>
				<path style="fill:#272425;" d="M66.03,20.188c-0.103,0-0.205-0.039-0.283-0.117c-0.156-0.156-0.156-0.409,0-0.565l1.589-1.59
					c0.156-0.156,0.41-0.156,0.566,0c0.156,0.156,0.156,0.409,0,0.565l-1.589,1.59C66.235,20.149,66.133,20.188,66.03,20.188z"/>
			</g>
		</g>
		<g>
			<g>
				<line style="fill:#FFFFFF;" x1="14.676" y1="11.706" x2="12.592" y2="12.799"/>
				<path style="fill:#272425;" d="M12.592,13.049c-0.09,0-0.177-0.049-0.221-0.134c-0.064-0.123-0.017-0.273,0.105-0.337
					l2.083-1.093c0.121-0.063,0.274-0.017,0.337,0.105c0.064,0.123,0.017,0.273-0.105,0.337l-2.083,1.093
					C12.671,13.04,12.632,13.049,12.592,13.049z"/>
			</g>
			<g>
				<line style="fill:#FFFFFF;" x1="13.116" y1="10.365" x2="14.676" y2="11.706"/>
				<path style="fill:#272425;" d="M14.675,11.956c-0.058,0-0.116-0.02-0.163-0.061l-1.559-1.341
					c-0.104-0.09-0.117-0.248-0.026-0.353c0.089-0.104,0.248-0.116,0.353-0.026l1.559,1.341c0.104,0.09,0.117,0.248,0.026,0.353
					C14.815,11.927,14.746,11.956,14.675,11.956z"/>
			</g>
			<g>
				<g>
					<circle style="fill:#FFFFFF;" cx="13.116" cy="10.364" r="0.492"/>
				</g>
				<g>
					<path style="fill:#272425;" d="M13.116,10.122c0.134,0,0.242,0.108,0.242,0.242s-0.108,0.242-0.242,0.242
						c-0.134,0-0.242-0.108-0.242-0.242S12.983,10.122,13.116,10.122 M13.116,9.622c-0.409,0-0.742,0.333-0.742,0.742
						s0.333,0.742,0.742,0.742s0.742-0.333,0.742-0.742S13.526,9.622,13.116,9.622L13.116,9.622z"/>
				</g>
			</g>
			<g>
				<g>
					<circle style="fill:#FFFFFF;" cx="14.708" cy="11.734" r="0.576"/>
				</g>
				<g>
					<path style="fill:#272425;" d="M14.708,11.408c0.18,0,0.326,0.146,0.326,0.326c0,0.18-0.146,0.326-0.326,0.326
						c-0.18,0-0.326-0.146-0.326-0.326C14.382,11.554,14.528,11.408,14.708,11.408 M14.708,10.908c-0.456,0-0.826,0.371-0.826,0.826
						s0.371,0.826,0.826,0.826c0.456,0,0.826-0.371,0.826-0.826S15.164,10.908,14.708,10.908L14.708,10.908z"/>
				</g>
			</g>
			<g>
				<g>
					<circle style="fill:#FFFFFF;" cx="12.592" cy="12.799" r="0.619"/>
				</g>
				<g>
					<path style="fill:#272425;" d="M12.592,12.43c0.204,0,0.369,0.165,0.369,0.369s-0.165,0.369-0.369,0.369
						s-0.369-0.165-0.369-0.369S12.388,12.43,12.592,12.43 M12.592,11.93c-0.479,0-0.869,0.39-0.869,0.869s0.39,0.869,0.869,0.869
						s0.869-0.39,0.869-0.869S13.072,11.93,12.592,11.93L12.592,11.93z"/>
				</g>
			</g>
		</g>
		<g>
			<g>
				<path style="fill:#FFFFFF;" d="M29.945,17.076h-2.837v6.84c0,2.047-1.659,3.707-3.707,3.707s-3.707-1.659-3.707-3.707v-6.84
					h-2.837v6.84c0,3.614,2.929,6.543,6.543,6.543s6.543-2.929,6.543-6.543V17.076z"/>
				<path style="fill:#272425;" d="M23.402,30.859c-3.829,0-6.943-3.115-6.943-6.943v-6.84c0-0.221,0.179-0.4,0.4-0.4h2.836
					c0.221,0,0.4,0.179,0.4,0.4v6.84c0,1.823,1.483,3.307,3.307,3.307s3.307-1.483,3.307-3.307v-6.84c0-0.221,0.179-0.4,0.4-0.4
					h2.836c0.221,0,0.4,0.179,0.4,0.4v6.84C30.345,27.744,27.23,30.859,23.402,30.859z M17.259,17.476v6.44
					c0,3.387,2.756,6.143,6.143,6.143s6.143-2.756,6.143-6.143v-6.44h-2.037v6.44c0,2.264-1.842,4.106-4.106,4.106
					s-4.106-1.842-4.106-4.106v-6.44H17.259z"/>
			</g>
			<g>

					<rect x="16.859" y="17.076" transform="matrix(-1 -4.488777e-11 4.488777e-11 -1 36.5541 36.9878)" style="fill:#C65254;" width="2.837" height="2.837"/>
				<path style="fill:#272425;" d="M19.695,20.312h-2.836c-0.221,0-0.4-0.179-0.4-0.4v-2.836c0-0.221,0.179-0.4,0.4-0.4h2.836
					c0.221,0,0.4,0.179,0.4,0.4v2.836C20.095,20.133,19.916,20.312,19.695,20.312z M17.259,19.512h2.037v-2.037h-2.037V19.512z"/>
			</g>
			<g>

					<rect x="27.108" y="17.076" transform="matrix(-1 -4.520840e-11 4.520840e-11 -1 57.0534 36.9878)" style="fill:#C65254;" width="2.837" height="2.837"/>
				<path style="fill:#272425;" d="M29.945,20.312h-2.836c-0.221,0-0.4-0.179-0.4-0.4v-2.836c0-0.221,0.179-0.4,0.4-0.4h2.836
					c0.221,0,0.4,0.179,0.4,0.4v2.836C30.345,20.133,30.166,20.312,29.945,20.312z M27.508,19.512h2.037v-2.037h-2.037V19.512z"/>
			</g>
			<g>
				<path style="fill:#272425;" d="M23.402,33.784c-0.221,0-0.4-0.179-0.4-0.4v-2.925c0-0.221,0.179-0.4,0.4-0.4s0.4,0.179,0.4,0.4
					v2.925C23.802,33.604,23.623,33.784,23.402,33.784z"/>
			</g>
		</g>
		<g>
			<path style="fill:#272425;" d="M55.024,34.537c-0.221,0-0.4-0.179-0.4-0.4v-2.494c0-0.221,0.18-0.4,0.4-0.4s0.4,0.179,0.4,0.4
				v2.494C55.425,34.357,55.245,34.537,55.024,34.537z"/>
		</g>
		<g>
			<g>
				<path style="fill:#FFFFFF;" d="M51.665,13.557v14.836c0,1.801,1.46,3.261,3.261,3.261c1.801,0,3.261-1.46,3.261-3.261V13.557"/>
				<path style="fill:#272425;" d="M54.926,32.053c-2.019,0-3.661-1.642-3.661-3.661V13.557c0-0.221,0.18-0.4,0.4-0.4
					s0.4,0.179,0.4,0.4v14.835c0,1.578,1.283,2.861,2.86,2.861s2.86-1.283,2.86-2.861V13.557c0-0.221,0.18-0.4,0.4-0.4
					s0.4,0.179,0.4,0.4v14.835C58.587,30.411,56.944,32.053,54.926,32.053z"/>
			</g>
			<g>
				<path style="fill:#D17F24;" d="M51.665,21.916v6.476c0,1.801,1.46,3.261,3.261,3.261c1.801,0,3.261-1.46,3.261-3.261v-6.476"/>
			</g>
			<g>
				<path style="fill:#272425;" d="M54.926,32.053c-2.019,0-3.661-1.642-3.661-3.661V11.313c0-0.221,0.18-0.4,0.4-0.4
					s0.4,0.179,0.4,0.4v17.079c0,1.578,1.283,2.861,2.86,2.861s2.86-1.283,2.86-2.861V11.313c0-0.221,0.18-0.4,0.4-0.4h1.83
					c0.221,0,0.4,0.179,0.4,0.4s-0.18,0.4-0.4,0.4h-1.43v16.679C58.587,30.411,56.944,32.053,54.926,32.053z"/>
			</g>
			<g>
				<circle style="fill:#D17F24;" cx="53.425" cy="21.895" r="0.754"/>
			</g>
			<g>
				<circle style="fill:#D17F24;" cx="55.841" cy="21.895" r="0.448"/>
			</g>
			<g>
				<circle style="fill:#DEC33A;" cx="53.597" cy="25.434" r="0.936"/>
			</g>
			<g>
				<circle style="fill:#C65254;" cx="55.607" cy="28.261" r="0.681"/>
			</g>
			<g>
				<path style="fill:#272425;" d="M58.187,15.134h-1.895c-0.221,0-0.4-0.179-0.4-0.4s0.18-0.4,0.4-0.4h1.895
					c0.221,0,0.4,0.179,0.4,0.4S58.407,15.134,58.187,15.134z"/>
			</g>
			<g>
				<path style="fill:#272425;" d="M58.187,17.096h-1.895c-0.221,0-0.4-0.179-0.4-0.4s0.18-0.4,0.4-0.4h1.895
					c0.221,0,0.4,0.179,0.4,0.4S58.407,17.096,58.187,17.096z"/>
			</g>
			<g>
				<path style="fill:#272425;" d="M58.187,19.058h-1.895c-0.221,0-0.4-0.179-0.4-0.4c0-0.221,0.18-0.4,0.4-0.4h1.895
					c0.221,0,0.4,0.179,0.4,0.4C58.587,18.879,58.407,19.058,58.187,19.058z"/>
			</g>
			<g>
				<path style="fill:#272425;" d="M58.187,21.02h-1.895c-0.221,0-0.4-0.179-0.4-0.4s0.18-0.4,0.4-0.4h1.895
					c0.221,0,0.4,0.179,0.4,0.4S58.407,21.02,58.187,21.02z"/>
			</g>
			<g>
				<path style="fill:#272425;" d="M58.187,22.982h-1.895c-0.221,0-0.4-0.179-0.4-0.4s0.18-0.4,0.4-0.4h1.895
					c0.221,0,0.4,0.179,0.4,0.4S58.407,22.982,58.187,22.982z"/>
			</g>
			<g>
				<path style="fill:#272425;" d="M58.187,24.944h-1.895c-0.221,0-0.4-0.179-0.4-0.4s0.18-0.4,0.4-0.4h1.895
					c0.221,0,0.4,0.179,0.4,0.4S58.407,24.944,58.187,24.944z"/>
			</g>
		</g>
		<g>
			<rect x="13.546" y="33.715" style="fill:#D17F24;" width="52.161" height="3.418"/>
			<path style="fill:#272425;" d="M65.707,37.533H13.546c-0.221,0-0.4-0.179-0.4-0.4v-3.418c0-0.221,0.179-0.4,0.4-0.4h52.161
				c0.221,0,0.4,0.179,0.4,0.4v3.418C66.107,37.354,65.928,37.533,65.707,37.533z M13.946,36.733h51.361v-2.618H13.946V36.733z"/>
		</g>
	</g>
</g>
</svg>
